<svg xmlns="http://www.w3.org/2000/svg" xmlns:xlink="http://www.w3.org/1999/xlink" width="96" height="47" version="1.1" viewBox="0 0 96 47"><defs><linearGradient id="linearGradient-1" x1="100%" x2="0%" y1="0%" y2="100%"><stop offset="0%" stop-color="#FFDC48"/><stop offset="100%" stop-color="#FFAF67"/></linearGradient></defs><g fill="none" fill-rule="evenodd" stroke="none" stroke-width="1"><path fill="url(#linearGradient-1)" d="M47.9911965,41.3381052 C48.1096277,41.4044595 48.2462519,41.4422974 48.3918289,41.4422974 C69.4978802,41.4422974 86.6679315,24.2714256 86.6679315,3.16619487 C86.6679315,2.71327179 86.3011622,2.34568205 85.8474187,2.34568205 C85.3944956,2.34568205 85.0269058,2.71327179 85.0269058,3.16619487 C85.0269058,23.3672205 68.5928546,39.8012718 48.3918289,39.8012718 C48.2462519,39.8012718 48.1096277,39.8391098 47.9911965,39.9054641 C47.8727653,39.8391098 47.7361411,39.8012718 47.5905641,39.8012718 C27.3895385,39.8012718 10.9554872,23.3672205 10.9554872,3.16619487 C10.9554872,2.71327179 10.5878974,2.34568205 10.1349744,2.34568205 C9.68123077,2.34568205 9.31446154,2.71327179 9.31446154,3.16619487 C9.31446154,24.2714256 26.4845128,41.4422974 47.5905641,41.4422974 C47.7361411,41.4422974 47.8727653,41.4044595 47.9911965,41.3381052 Z M72.8486084,36.0753231 C73.4024546,36.0753231 73.943993,36.1212718 74.457634,36.2115282 C78.7169161,36.9573744 81.9604033,40.5364513 82.0966084,40.6882462 C82.3764033,41.0008615 82.3755828,41.4734769 82.0949674,41.7844513 C81.9185571,41.9813744 77.7175315,46.5869128 73.5739417,46.5869128 C73.2605058,46.5869128 72.9511725,46.5606564 72.6541469,46.5081436 C67.1222494,45.5399385 63.7868648,40.4749128 63.6473776,40.2599385 C63.4069674,39.8874256 63.5054289,39.3910154 63.8705571,39.1382974 C64.0510699,39.0135795 68.3579417,36.0753231 72.8486084,36.0753231 Z M77.1402187,29.9246769 C77.2411417,29.7056 79.6534494,24.5511385 83.241552,24.0859077 C83.6083212,24.0383179 83.9849366,24.0145231 84.361552,24.0145231 C88.3016546,24.0145231 91.4425776,26.5909333 91.5746802,26.7000615 C91.9160135,26.983959 91.9693469,27.4877538 91.6952956,27.8372923 C91.561552,28.0087795 88.3607315,32.043241 84.3402187,32.5642667 C84.0046289,32.6077538 83.655911,32.6290872 83.3030905,32.6290872 C80.2721161,32.6290872 77.577552,31.0397538 77.4651417,30.9724718 C77.1049366,30.7574974 76.9646289,30.3053949 77.1402187,29.9246769 Z M74.524834,27.7708308 C74.3344751,27.7708308 74.1424751,27.7043692 73.9882187,27.5706256 C73.8232956,27.4278564 69.9521161,24.0317538 69.6296546,19.9907282 C69.3556033,16.5511385 71.4684238,13.3371897 71.5586802,13.2026256 C71.7908853,12.8530872 72.2487315,12.7357538 72.6212443,12.9302154 C72.8345776,13.0418051 77.8635007,15.7051897 78.1515007,19.3113436 C78.5067828,23.7757538 75.2665776,27.3556513 75.1287315,27.5058051 C74.9670905,27.6813949 74.747193,27.7708308 74.524834,27.7708308 Z M85.1218392,18.1634462 C84.7214289,18.0379077 84.4801981,17.6317538 84.5622494,17.2206769 C84.5909674,17.0770872 85.2859417,13.7023179 87.639993,11.6920615 C89.8266597,9.82457436 93.1965058,9.62354872 94.5429674,9.62354872 C94.9556853,9.62354872 95.2018392,9.6416 95.2018392,9.6416 C95.6432751,9.6736 95.9813264,10.0510359 95.9632751,10.4932923 C95.9558905,10.6762667 95.7441981,14.9979077 92.6894289,17.6054974 C91.8057366,18.3595487 90.5405058,18.7419077 88.9273776,18.7419077 C86.9876853,18.7419077 85.1973264,18.187241 85.1218392,18.1634462 Z M76.1739007,8.03889231 C74.4229264,5.28525128 76.5882597,0.663302564 76.6809776,0.468020513 C76.8614905,0.0889435897 77.2980033,-0.0915692308 77.694311,0.0462769231 C77.8313366,0.0938666667 81.0764648,1.25489231 82.7355417,3.86822564 C84.6875417,6.93858462 83.7480546,11.4522256 83.7078494,11.6425846 C83.6249776,12.0265846 83.2861058,12.2907897 82.9062084,12.2907897 C82.8577981,12.2907897 82.8069264,12.2866872 82.7568751,12.2776615 C82.5780033,12.2440205 78.3277469,11.4292513 76.1739007,8.03889231 Z M63.3301674,21.8253128 C63.7420648,21.6571077 64.2097571,21.8474667 64.3902699,22.2528 C64.4944751,22.4866462 66.9067828,28.0497231 64.6905776,33.2099282 C62.9174494,37.3371077 55.8692443,38.4792615 55.5705776,38.5260308 C55.5270905,38.5325949 55.4852443,38.5358769 55.4433981,38.5358769 C55.0774494,38.5358769 54.7484238,38.2905436 54.6516033,37.9278769 C54.5982699,37.7309538 53.3789879,33.0564923 55.084834,29.0835692 C57.0909879,24.4148513 63.0758084,21.9286974 63.3301674,21.8253128 Z M23.1337846,36.0753231 C22.5799385,36.0753231 22.0384,36.1212718 21.524759,36.2115282 C17.2654769,36.9573744 14.0219897,40.5364513 13.8857846,40.6882462 C13.6059897,41.0008615 13.6068103,41.4734769 13.8874256,41.7844513 C14.0638359,41.9813744 18.2648615,46.5869128 22.4084513,46.5869128 C22.7218872,46.5869128 23.0312205,46.5606564 23.3282462,46.5081436 C28.8601436,45.5399385 32.1955282,40.4749128 32.3350154,40.2599385 C32.5754256,39.8874256 32.4769641,39.3910154 32.1118359,39.1382974 C31.9313231,39.0135795 27.6244513,36.0753231 23.1337846,36.0753231 Z M18.8421744,29.9246769 C18.7412513,29.7056 16.3289436,24.5511385 12.740841,24.0859077 C12.3740718,24.0383179 11.9974564,24.0145231 11.620841,24.0145231 C7.68073846,24.0145231 4.53981538,26.5909333 4.40771282,26.7000615 C4.06637949,26.983959 4.01304615,27.4877538 4.28709744,27.8372923 C4.42084103,28.0087795 7.62166154,32.043241 11.6421744,32.5642667 C11.9777641,32.6077538 12.3264821,32.6290872 12.6793026,32.6290872 C15.7102769,32.6290872 18.404841,31.0397538 18.5172513,30.9724718 C18.8774564,30.7574974 19.0177641,30.3053949 18.8421744,29.9246769 Z M21.457559,27.7708308 C21.6479179,27.7708308 21.8399179,27.7043692 21.9941744,27.5706256 C22.1590974,27.4278564 26.0302769,24.0317538 26.3527385,19.9907282 C26.6267897,16.5511385 24.5139692,13.3371897 24.4237128,13.2026256 C24.1915077,12.8530872 23.7336615,12.7357538 23.3611487,12.9302154 C23.1478154,13.0418051 18.1188923,15.7051897 17.8308923,19.3113436 C17.4756103,23.7757538 20.7158154,27.3556513 20.8536615,27.5058051 C21.0153026,27.6813949 21.2352,27.7708308 21.457559,27.7708308 Z M10.8605538,18.1634462 C11.2609641,18.0379077 11.5021949,17.6317538 11.4201436,17.2206769 C11.3914256,17.0770872 10.6964513,13.7023179 8.3424,11.6920615 C6.15573333,9.82457436 2.78588718,9.62354872 1.43942564,9.62354872 C1.02670769,9.62354872 0.780553846,9.6416 0.780553846,9.6416 C0.339117949,9.6736 0.00106666667,10.0510359 0.0191179487,10.4932923 C0.0265025641,10.6762667 0.238194872,14.9979077 3.2929641,17.6054974 C4.17665641,18.3595487 5.44188718,18.7419077 7.05501538,18.7419077 C8.99470769,18.7419077 10.7850667,18.187241 10.8605538,18.1634462 Z M19.8084923,8.03889231 C21.5594667,5.28525128 19.3941333,0.663302564 19.3014154,0.468020513 C19.1209026,0.0889435897 18.6843897,-0.0915692308 18.2880821,0.0462769231 C18.1510564,0.0938666667 14.9059282,1.25489231 13.2468513,3.86822564 C11.2948513,6.93858462 12.2343385,11.4522256 12.2745436,11.6425846 C12.3574154,12.0265846 12.6962872,12.2907897 13.0761846,12.2907897 C13.1245949,12.2907897 13.1754667,12.2866872 13.2255179,12.2776615 C13.4043897,12.2440205 17.6546462,11.4292513 19.8084923,8.03889231 Z M32.6522256,21.8253128 C32.2403282,21.6571077 31.7726359,21.8474667 31.5921231,22.2528 C31.4879179,22.4866462 29.0756103,28.0497231 31.2918154,33.2099282 C33.0649436,37.3371077 40.1131487,38.4792615 40.4118154,38.5260308 C40.4553026,38.5325949 40.4971487,38.5358769 40.5389949,38.5358769 C40.9049436,38.5358769 41.2339692,38.2905436 41.3307897,37.9278769 C41.3841231,37.7309538 42.6034051,33.0564923 40.897559,29.0835692 C38.8914051,24.4148513 32.9065846,21.9286974 32.6522256,21.8253128 Z M58.796,7.926 L60.006,7.926 C60.4313355,7.926 60.8053317,7.84900077 61.128,7.695 C61.4506683,7.54099923 61.7183323,7.33200132 61.931,7.068 C62.1436677,6.80399868 62.3013328,6.49966839 62.404,6.155 C62.5066672,5.81033161 62.558,5.44733524 62.558,5.066 C62.558,4.61133106 62.488334,4.20433513 62.349,3.845 C62.209666,3.48566487 62.0226678,3.18133458 61.788,2.932 C61.5533322,2.68266542 61.2746683,2.49566729 60.952,2.371 C60.6293317,2.24633271 60.2846685,2.184 59.918,2.184 L58.796,2.184 L58.796,7.926 Z M55.012,0.71 L60.358,0.71 C61.2086709,0.71 62.0079963,0.80166575 62.756,0.985 C63.5040037,1.16833425 64.1566639,1.43966487 64.714,1.799 C65.2713361,2.15833513 65.7076651,2.60566399 66.023,3.141 C66.3383349,3.67633601 66.496,4.29599648 66.496,5 C66.496,5.733337 66.3383349,6.36766399 66.023,6.903 C65.7076651,7.43833601 65.2933359,7.88566487 64.78,8.245 C64.2666641,8.60433513 63.6800033,8.87199912 63.02,9.048 C62.3599967,9.22400088 61.6853368,9.312 60.996,9.312 L58.796,9.312 L58.796,16 L55.012,16 L55.012,0.71 Z M47.356,0.71 L51.096,0.71 L51.096,16 L47.356,16 L47.356,0.71 Z M33.144,0.71 L38.204,11.27 L42.89,0.71 L45.31,0.71 L38.424,16.242 L36.664,16.242 L29.272,0.71 L33.144,0.71 Z"/></g></svg>